<mxfile host="app.diagrams.net" modified="2021-01-07T15:06:18.499Z" agent="5.0 (Windows NT 10.0; Win64; x64) AppleWebKit/537.36 (KHTML, like Gecko) Chrome/87.0.4280.88 Safari/537.36" etag="O2OxYUmxJVxl8OkjCAxY" version="14.1.8" type="github">
  <diagram id="GXYXpE88ZfLYlKwszmxQ" name="Page-1">
    <mxGraphModel dx="930" dy="752" grid="1" gridSize="10" guides="1" tooltips="1" connect="1" arrows="1" fold="1" page="1" pageScale="1" pageWidth="1100" pageHeight="850" math="0" shadow="0">
      <root>
        <mxCell id="dbJu_uO1wde_zjpPtJhL-0" />
        <mxCell id="dbJu_uO1wde_zjpPtJhL-1" parent="dbJu_uO1wde_zjpPtJhL-0" />
      </root>
    </mxGraphModel>
  </diagram>
</mxfile>
